<svg width="88" height="88" viewBox="0 0 88 88" fill="none" xmlns="http://www.w3.org/2000/svg">
<path d="M61.2487 16.9177C52.7381 21.3038 43.4002 24.3071 33.5304 25.6323C29.7606 26.1385 25.9117 26.4001 22 26.4001C12.2798 26.4001 4.40002 34.2798 4.40002 44.0001C4.40002 52.9691 11.109 60.3712 19.7823 61.4617C21.0664 66.4676 22.9231 71.3982 25.375 76.1633C27.1199 79.5542 31.2797 80.5581 34.3976 78.7579L38.2081 76.5579C41.4046 74.7124 42.3464 70.7452 40.798 67.6642C40.0672 66.21 39.4101 64.7367 38.8253 63.2485C46.7469 64.8232 54.2754 67.4886 61.2487 71.0824C64.3231 62.6329 66 53.5123 66 44C66 34.4877 64.3231 25.3672 61.2487 16.9177Z" fill="white"/>
<path d="M67.0682 13.6249C70.6432 23.0672 72.6 33.3051 72.6 44C72.6 54.6949 70.6432 64.9328 67.0681 74.3752C67.0684 74.3754 67.0679 74.3751 67.0681 74.3752L66.9396 74.7151C66.287 76.4168 67.1374 78.3253 68.8391 78.978C70.5408 79.6306 72.4493 78.7801 73.1019 77.0785C73.4807 76.0907 73.8431 75.0948 74.1886 74.0911C76.6268 67.0091 78.228 59.5391 78.8752 51.8006C81.6838 50.3309 83.6 47.3912 83.6 44.0001C83.6 40.6089 81.6838 37.6693 78.8752 36.1995C78.228 28.4611 76.6268 20.991 74.1886 13.909C73.8431 12.9053 73.4807 11.9094 73.1019 10.9216C72.4493 9.21995 70.5408 8.36952 68.8391 9.02215C67.1374 9.67477 66.287 11.5833 66.9396 13.285L67.0682 13.6249C67.0679 13.625 67.0684 13.6247 67.0682 13.6249Z" fill="white"/>
</svg>
