<svg xmlns="http://www.w3.org/2000/svg" width="622" height="304" fill="none"><path fill="#1F273B" d="M0 5a5 5 0 0 1 5-5h612a5 5 0 0 1 5 5v294a5 5 0 0 1-5 5H5a5 5 0 0 1-5-5V5Z"/><path fill="#1991FF" d="M369 196h210v30H369z"/><path fill="#BE6819" d="M79 146h500v30H79zM40 40h15v15H40z"/><path fill="#1991FF" d="M40 60h15v15H40z"/><path fill="#fff" d="m62.642 52-2.386-8.727h1.074l1.823 7.108h.086l1.858-7.108h1.193l1.858 7.108h.085l1.824-7.108h1.074L68.744 52h-1.09l-1.927-6.955h-.068L63.733 52h-1.091Zm9.67 0v-6.545h1.005V52H72.31Zm.51-7.636a.715.715 0 0 1-.507-.2.644.644 0 0 1-.209-.482c0-.188.07-.348.21-.482a.715.715 0 0 1 .506-.2.7.7 0 0 1 .503.2.638.638 0 0 1 .213.482.638.638 0 0 1-.213.481.7.7 0 0 1-.503.2Zm3.342 3.699V52H75.16v-6.545h.971v1.022h.086c.153-.332.386-.6.698-.8.313-.205.716-.308 1.21-.308.444 0 .832.091 1.164.273.332.179.59.452.776.818.184.364.277.824.277 1.38V52h-1.006v-4.09c0-.515-.134-.916-.4-1.203-.268-.29-.634-.434-1.1-.434-.321 0-.608.07-.86.208-.25.14-.448.343-.593.61-.145.267-.218.59-.218.971Zm8.486 4.073a2.562 2.562 0 0 1-1.445-.413c-.417-.278-.744-.67-.98-1.176-.236-.509-.354-1.11-.354-1.803 0-.687.118-1.284.354-1.79.236-.505.564-.896.985-1.171.42-.276.906-.414 1.457-.414.426 0 .763.071 1.01.213.25.14.44.299.57.478.134.176.238.32.312.434h.085v-3.221h1.006V52h-.972v-1.006h-.12c-.073.12-.178.27-.314.452-.137.179-.331.34-.584.482-.253.139-.59.208-1.01.208Zm.136-.903c.404 0 .745-.105 1.023-.315.278-.213.49-.508.635-.883.145-.377.217-.813.217-1.308 0-.488-.07-.916-.213-1.282a1.868 1.868 0 0 0-.63-.861c-.279-.208-.623-.311-1.032-.311-.426 0-.781.11-1.065.328-.281.216-.493.51-.635.882a3.49 3.49 0 0 0-.209 1.244c0 .466.071.89.213 1.27.145.378.358.68.64.904.283.221.636.332 1.056.332Zm7.504.903c-.59 0-1.109-.14-1.555-.422a2.866 2.866 0 0 1-1.04-1.18c-.247-.506-.37-1.096-.37-1.773 0-.681.123-1.277.37-1.785a2.86 2.86 0 0 1 1.04-1.185c.446-.281.965-.422 1.555-.422.591 0 1.108.14 1.552.422.446.281.792.676 1.04 1.185.25.508.374 1.104.374 1.785 0 .676-.125 1.267-.375 1.773-.247.506-.593.9-1.04 1.18-.443.282-.96.422-1.55.422Zm0-.903c.45 0 .819-.115 1.108-.345.29-.23.505-.533.644-.908.14-.375.209-.781.209-1.219 0-.437-.07-.845-.21-1.223a2.06 2.06 0 0 0-.643-.916c-.29-.233-.659-.35-1.108-.35-.448 0-.818.117-1.108.35-.29.233-.504.538-.643.916a3.51 3.51 0 0 0-.209 1.223c0 .438.07.844.21 1.22.138.374.353.677.642.907.29.23.66.345 1.108.345Zm5.762.767-1.995-6.545h1.057l1.415 5.01h.068l1.398-5.01h1.074l1.381 4.994h.068l1.415-4.994h1.056L102.995 52h-.989l-1.431-5.028h-.103L99.041 52h-.99Zm12.903-5.08-.903.256a1.682 1.682 0 0 0-.252-.439 1.215 1.215 0 0 0-.443-.358c-.187-.093-.427-.14-.72-.14-.4 0-.734.092-1.001.277-.265.181-.397.413-.397.694 0 .25.091.448.273.593.182.144.466.265.852.362l.972.238c.585.142 1.021.36 1.308.652.287.29.431.664.431 1.121 0 .375-.108.71-.324 1.006a2.151 2.151 0 0 1-.895.699c-.384.17-.83.255-1.338.255-.668 0-1.22-.145-1.658-.434-.437-.29-.714-.713-.831-1.27l.955-.239c.091.352.262.617.515.793.256.176.59.264 1.002.264.468 0 .841-.1 1.116-.298.279-.202.418-.444.418-.725a.762.762 0 0 0-.239-.57c-.159-.157-.403-.273-.733-.35l-1.091-.256c-.599-.142-1.039-.362-1.321-.66-.278-.301-.417-.678-.417-1.13 0-.369.103-.696.311-.98.21-.284.495-.507.856-.669a3.011 3.011 0 0 1 1.236-.243c.648 0 1.156.142 1.526.426.372.285.636.66.792 1.125Zm8.06-3.647V52h-1.057v-7.62h-.051l-2.131 1.415v-1.073l2.182-1.45h1.057Zm5.356 8.846c-.642 0-1.189-.174-1.641-.524-.451-.352-.796-.862-1.035-1.53-.239-.67-.358-1.48-.358-2.429 0-.943.119-1.748.358-2.416.241-.67.588-1.182 1.04-1.534.454-.355 1-.533 1.636-.533.636 0 1.18.178 1.632.533.455.352.801.864 1.04 1.534.241.668.362 1.473.362 2.416 0 .95-.119 1.759-.358 2.43-.238.667-.584 1.177-1.035 1.53-.452.349-.999.523-1.641.523Zm0-.937c.636 0 1.131-.307 1.483-.92.352-.614.528-1.49.528-2.626 0-.755-.081-1.399-.242-1.93-.16-.531-.39-.936-.691-1.215a1.522 1.522 0 0 0-1.078-.417c-.631 0-1.123.31-1.479.933-.355.62-.532 1.496-.532 2.63 0 .755.079 1.397.238 1.925.159.529.388.93.686 1.207.302.275.664.413 1.087.413ZM61.415 72h-1.108l3.204-8.727h1.091L67.807 72h-1.108l-2.608-7.347h-.068L61.415 72Zm.409-3.41h4.466v.938h-4.466v-.937Zm9.642-3.136v.853h-3.392v-.853h3.392Zm-2.403-1.568h1.005v6.239c0 .284.042.497.124.64a.64.64 0 0 0 .324.28c.133.046.274.069.422.069.11 0 .202-.006.273-.017l.17-.034.205.903a2.05 2.05 0 0 1-.286.077 2.103 2.103 0 0 1-.464.042c-.284 0-.563-.06-.836-.183a1.659 1.659 0 0 1-.673-.558c-.176-.25-.264-.566-.264-.946v-6.512Zm5.062-.613V72H73.12v-8.727h1.005Zm3.769 8.88a2.66 2.66 0 0 1-1.13-.234 1.939 1.939 0 0 1-.805-.686c-.2-.301-.299-.665-.299-1.091 0-.375.074-.679.222-.912.148-.236.345-.42.592-.554.248-.133.52-.233.819-.298a10 10 0 0 1 .907-.162c.398-.051.72-.09.968-.115.25-.029.431-.075.545-.14.117-.066.175-.18.175-.342v-.034c0-.42-.115-.747-.345-.98-.228-.233-.573-.35-1.036-.35-.48 0-.856.106-1.13.316-.272.21-.464.435-.574.673l-.955-.34c.17-.398.398-.708.682-.93.287-.224.6-.38.937-.468a3.896 3.896 0 0 1 1.006-.137c.21 0 .452.026.724.077.276.048.542.15.797.303.259.153.473.385.644.694.17.31.255.725.255 1.245V72h-1.005v-.886h-.051a1.767 1.767 0 0 1-.341.456c-.16.162-.371.3-.635.413-.264.114-.587.17-.968.17Zm.153-.903c.398 0 .733-.078 1.006-.234a1.595 1.595 0 0 0 .835-1.385v-.92c-.043.05-.137.097-.282.14-.141.04-.306.075-.494.106a22.303 22.303 0 0 1-.963.128 3.91 3.91 0 0 0-.733.166 1.264 1.264 0 0 0-.545.337c-.137.148-.205.35-.205.605 0 .35.13.614.388.793.261.176.592.264.993.264Zm9.318-4.33-.903.256a1.68 1.68 0 0 0-.251-.439 1.22 1.22 0 0 0-.444-.358c-.187-.094-.427-.14-.72-.14-.4 0-.734.092-1.001.277-.264.181-.397.413-.397.694 0 .25.091.448.273.593.182.144.466.265.853.362l.971.238c.585.142 1.021.36 1.308.652.287.29.43.664.43 1.121 0 .375-.107.71-.323 1.006a2.148 2.148 0 0 1-.895.699c-.384.17-.83.255-1.338.255-.668 0-1.22-.144-1.658-.434-.437-.29-.714-.713-.83-1.27l.954-.239c.09.353.263.617.515.793.256.176.59.264 1.002.264.469 0 .84-.1 1.116-.298.279-.202.418-.444.418-.725a.762.762 0 0 0-.239-.57c-.159-.157-.403-.273-.733-.35l-1.09-.256c-.6-.142-1.04-.362-1.322-.66-.278-.302-.417-.678-.417-1.13 0-.369.103-.696.31-.98a2.13 2.13 0 0 1 .857-.669 3.008 3.008 0 0 1 1.236-.243c.648 0 1.157.142 1.526.427.372.283.636.658.792 1.124Z"/><rect width="3" height="155" x="579" y="109" fill="#F3FAFF" rx="1.5"/><path fill="#fff" d="M393.957 44.91h2.902l3.887 9.485h.153l3.886-9.486h2.902V58h-2.275v-8.994h-.122l-3.618 8.956h-1.7l-3.618-8.975h-.121V58h-2.276V44.91Zm20.557 13.282c-.984 0-1.834-.205-2.55-.614a4.15 4.15 0 0 1-1.643-1.751c-.384-.759-.575-1.652-.575-2.679 0-1.01.191-1.896.575-2.659a4.355 4.355 0 0 1 1.623-1.79c.695-.43 1.511-.645 2.449-.645.605 0 1.176.098 1.713.294.541.192 1.018.49 1.431.895.418.405.746.92.985 1.547.238.622.358 1.363.358 2.224v.71h-8.048v-1.56h5.83a2.492 2.492 0 0 0-.288-1.183 2.085 2.085 0 0 0-.786-.824c-.332-.2-.72-.3-1.163-.3-.473 0-.889.115-1.247.345a2.376 2.376 0 0 0-.837.895 2.583 2.583 0 0 0-.301 1.208v1.361c0 .571.105 1.061.314 1.47.208.405.5.716.875.934.375.213.814.32 1.317.32a2.8 2.8 0 0 0 .914-.141c.273-.098.509-.241.71-.429.2-.187.351-.42.453-.696l2.161.242a3.36 3.36 0 0 1-.78 1.496c-.379.422-.865.75-1.457.985-.593.23-1.27.345-2.033.345Zm6.323-.192v-9.818h2.212v1.668h.115a2.606 2.606 0 0 1 1.016-1.317c.473-.32 1.038-.479 1.694-.479.665 0 1.225.162 1.681.486.461.32.784.756.972 1.31h.102a2.69 2.69 0 0 1 1.1-1.304c.52-.328 1.135-.492 1.847-.492.903 0 1.641.285 2.212.856.571.572.856 1.405.856 2.5V58h-2.32v-6.232c0-.61-.162-1.055-.486-1.336-.324-.286-.72-.428-1.189-.428-.558 0-.995.174-1.31.524-.311.345-.467.794-.467 1.348V58h-2.269v-6.328c0-.507-.153-.912-.46-1.215-.303-.302-.699-.453-1.189-.453-.333 0-.635.085-.908.255-.273.166-.49.403-.652.71a2.215 2.215 0 0 0-.243 1.06V58h-2.314Zm20.437.192c-.958 0-1.789-.211-2.493-.633a4.298 4.298 0 0 1-1.636-1.77c-.383-.76-.575-1.645-.575-2.66 0-1.014.192-1.902.575-2.665a4.29 4.29 0 0 1 1.636-1.777c.704-.422 1.535-.633 2.493-.633.959 0 1.79.21 2.493.633a4.244 4.244 0 0 1 1.63 1.777c.388.763.582 1.651.582 2.665 0 1.015-.194 1.9-.582 2.66a4.252 4.252 0 0 1-1.63 1.77c-.703.422-1.534.633-2.493.633Zm.013-1.854c.52 0 .955-.143 1.304-.428.35-.29.609-.678.78-1.164a4.763 4.763 0 0 0 .262-1.623c0-.601-.087-1.144-.262-1.63-.171-.49-.43-.88-.78-1.17-.349-.29-.784-.434-1.304-.434-.533 0-.976.144-1.329.434-.35.29-.612.68-.787 1.17a4.912 4.912 0 0 0-.255 1.63c0 .596.085 1.138.255 1.623.175.486.437.874.787 1.164.353.285.796.428 1.329.428ZM447.943 58v-9.818h2.243v1.636h.103c.179-.567.486-1.003.92-1.31.439-.311.94-.467 1.502-.467.128 0 .271.007.429.02.161.008.296.023.402.044v2.129a2.42 2.42 0 0 0-.466-.09 4.296 4.296 0 0 0-.608-.045c-.421 0-.801.092-1.137.275a2.011 2.011 0 0 0-.787.748c-.191.32-.287.688-.287 1.106V58h-2.314Zm8.874 3.682a4.69 4.69 0 0 1-.876-.077 3.26 3.26 0 0 1-.633-.166l.537-1.803c.337.098.637.145.901.141a1.1 1.1 0 0 0 .697-.25c.205-.157.377-.421.518-.792l.198-.53-3.56-10.023h2.454l2.263 7.415h.102l2.269-7.415h2.461l-3.931 11.007c-.183.52-.426.965-.729 1.336-.302.375-.673.66-1.112.856-.434.2-.954.3-1.559.3Zm21.752-16.773h2.371v8.553c0 .937-.221 1.762-.665 2.473-.439.712-1.056 1.268-1.853 1.669-.797.396-1.728.594-2.794.594-1.069 0-2.002-.198-2.799-.594-.797-.4-1.415-.957-1.854-1.669-.439-.711-.658-1.536-.658-2.473v-8.553h2.371v8.355c0 .545.119 1.03.358 1.457.243.426.584.76 1.023 1.003.439.24.959.358 1.559.358.601 0 1.121-.119 1.56-.358a2.553 2.553 0 0 0 1.023-1.003c.238-.426.358-.912.358-1.457v-8.355Zm12.606 5.868-2.109.23a1.703 1.703 0 0 0-.313-.6 1.559 1.559 0 0 0-.588-.455c-.247-.115-.55-.172-.908-.172-.481 0-.886.104-1.214.313-.324.209-.484.48-.48.812a.85.85 0 0 0 .313.697c.218.179.576.326 1.074.44l1.675.359c.929.2 1.619.517 2.071.952.456.435.686 1.003.69 1.707a2.667 2.667 0 0 1-.543 1.636c-.354.469-.846.835-1.477 1.1-.63.264-1.355.396-2.173.396-1.202 0-2.169-.252-2.902-.755-.733-.507-1.17-1.212-1.31-2.115l2.256-.218c.102.444.32.778.652 1.004.333.226.765.339 1.298.339.55 0 .991-.113 1.323-.339.337-.226.505-.505.505-.837a.873.873 0 0 0-.326-.697c-.213-.183-.546-.324-.997-.422l-1.675-.352c-.942-.196-1.638-.526-2.09-.99-.452-.47-.676-1.061-.671-1.777-.005-.605.159-1.13.492-1.573.337-.447.803-.792 1.4-1.035.601-.247 1.293-.371 2.077-.371 1.151 0 2.056.245 2.717.735.665.49 1.076 1.153 1.233 1.988Zm4.945 7.421c-.622 0-1.183-.11-1.681-.332a2.744 2.744 0 0 1-1.177-.997c-.285-.44-.428-.98-.428-1.624 0-.554.102-1.012.307-1.374.205-.363.484-.652.837-.87a4.223 4.223 0 0 1 1.196-.492 9.707 9.707 0 0 1 1.387-.25 54.46 54.46 0 0 0 1.4-.159c.358-.051.617-.128.779-.23.167-.106.25-.27.25-.492v-.038c0-.482-.143-.855-.429-1.12-.285-.263-.696-.395-1.233-.395-.567 0-1.017.123-1.349.37-.328.248-.55.54-.665.876l-2.16-.307c.17-.596.451-1.095.844-1.495a3.667 3.667 0 0 1 1.438-.908 5.496 5.496 0 0 1 1.879-.307c.473 0 .944.055 1.413.166.468.111.897.294 1.284.55.388.251.699.594.934 1.029.238.435.358.978.358 1.63V58h-2.225v-1.349h-.077a2.79 2.79 0 0 1-.594.767 2.858 2.858 0 0 1-.952.57c-.38.14-.825.21-1.336.21Zm.601-1.7c.464 0 .867-.092 1.208-.275.341-.188.603-.435.786-.742.187-.306.281-.64.281-1.003v-1.157c-.072.06-.196.115-.371.166-.17.051-.362.096-.575.134-.213.039-.424.073-.633.103l-.543.076a4.05 4.05 0 0 0-.927.23 1.542 1.542 0 0 0-.646.448c-.157.188-.236.43-.236.729 0 .426.156.748.467.965.311.217.707.326 1.189.326Zm11.179 5.388c-.831 0-1.545-.113-2.141-.338-.597-.222-1.076-.52-1.438-.895a3.095 3.095 0 0 1-.755-1.247l2.084-.505c.094.192.23.382.409.57.179.19.42.349.723.472.306.128.692.192 1.157.192.656 0 1.199-.16 1.63-.48.43-.315.645-.835.645-1.56v-1.86h-.115a3.278 3.278 0 0 1-.524.736 2.683 2.683 0 0 1-.901.633c-.371.17-.838.255-1.4.255a4.037 4.037 0 0 1-2.052-.53c-.609-.358-1.095-.89-1.457-1.598-.358-.712-.537-1.602-.537-2.672 0-1.078.179-1.988.537-2.73.362-.745.85-1.31 1.463-1.693a3.764 3.764 0 0 1 2.052-.582c.575 0 1.048.098 1.419.294.375.192.674.424.895.697.222.268.39.522.505.76h.128v-1.623h2.282v9.978c0 .84-.2 1.534-.601 2.084-.401.55-.948.96-1.643 1.233-.694.273-1.483.41-2.365.41Zm.019-5.842c.49 0 .908-.12 1.253-.358.345-.239.607-.582.786-1.029.179-.447.269-.984.269-1.61 0-.619-.09-1.16-.269-1.624-.174-.465-.434-.825-.779-1.08-.341-.26-.761-.39-1.26-.39-.515 0-.946.134-1.291.402-.345.269-.605.637-.78 1.106-.174.464-.262.993-.262 1.585 0 .601.088 1.127.262 1.579.179.447.441.797.787 1.048.349.247.777.371 1.284.371Zm11.308 2.148c-.984 0-1.835-.205-2.551-.614a4.154 4.154 0 0 1-1.642-1.751c-.384-.759-.576-1.652-.576-2.679 0-1.01.192-1.896.576-2.659a4.355 4.355 0 0 1 1.623-1.79c.695-.43 1.511-.645 2.448-.645.606 0 1.177.098 1.714.294.541.192 1.018.49 1.431.895.418.405.746.92.985 1.547.238.622.358 1.363.358 2.224v.71h-8.048v-1.56h5.83a2.492 2.492 0 0 0-.288-1.183 2.091 2.091 0 0 0-.786-.824c-.333-.2-.72-.3-1.164-.3-.473 0-.888.115-1.246.345a2.376 2.376 0 0 0-.837.895 2.57 2.57 0 0 0-.301 1.208v1.361c0 .571.105 1.061.313 1.47.209.405.501.716.876.934.375.213.814.32 1.317.32a2.8 2.8 0 0 0 .914-.141c.273-.098.509-.241.709-.429.201-.187.352-.42.454-.696l2.161.242a3.38 3.38 0 0 1-.78 1.496c-.379.422-.865.75-1.457.985-.593.23-1.27.345-2.033.345Zm19.66-9.102a3.358 3.358 0 0 0-.441-.927 2.848 2.848 0 0 0-.665-.71 2.667 2.667 0 0 0-.882-.44 3.673 3.673 0 0 0-1.086-.154c-.703 0-1.33.176-1.88.53-.549.354-.982.874-1.297 1.56-.311.682-.467 1.513-.467 2.493 0 .988.156 1.826.467 2.512.311.686.743 1.208 1.297 1.566.554.354 1.198.53 1.931.53.665 0 1.24-.127 1.726-.383.49-.256.867-.618 1.131-1.087.264-.473.396-1.027.396-1.662l.537.083H536.1v-1.853h5.312v1.572c0 1.12-.239 2.09-.716 2.909a4.886 4.886 0 0 1-1.969 1.892c-.835.438-1.794.658-2.876.658-1.206 0-2.265-.27-3.177-.812-.907-.545-1.617-1.319-2.128-2.32-.507-1.006-.761-2.199-.761-3.58 0-1.056.149-2 .447-2.831.303-.831.725-1.537 1.266-2.116a5.383 5.383 0 0 1 1.905-1.33 6.066 6.066 0 0 1 2.378-.46c.724 0 1.4.107 2.026.32a5.363 5.363 0 0 1 1.668.895c.49.387.893.848 1.208 1.38.316.533.522 1.121.62 1.764h-2.416Zm4.716 8.91v-9.818h2.244v1.636h.102c.179-.567.486-1.003.92-1.31.439-.311.94-.467 1.502-.467.128 0 .271.007.429.02.162.008.296.023.402.044v2.129a2.42 2.42 0 0 0-.466-.09 4.282 4.282 0 0 0-.607-.045 2.34 2.34 0 0 0-1.138.275 2.002 2.002 0 0 0-.786.748c-.192.32-.288.688-.288 1.106V58h-2.314Zm9.786.198c-.622 0-1.182-.11-1.681-.332a2.747 2.747 0 0 1-1.176-.997c-.286-.44-.428-.98-.428-1.624 0-.554.102-1.012.307-1.374.204-.363.483-.652.837-.87a4.229 4.229 0 0 1 1.195-.492c.448-.115.91-.198 1.387-.25a51.501 51.501 0 0 0 1.4-.159c.358-.051.618-.128.78-.23.166-.106.249-.27.249-.492v-.038c0-.482-.143-.855-.428-1.12-.286-.263-.697-.395-1.234-.395-.566 0-1.016.123-1.348.37-.329.248-.55.54-.665.876l-2.161-.307c.171-.596.452-1.095.844-1.495a3.667 3.667 0 0 1 1.438-.908 5.502 5.502 0 0 1 1.88-.307c.473 0 .943.055 1.412.166.469.111.897.294 1.285.55.388.251.699.594.933 1.029.239.435.358.978.358 1.63V58h-2.224v-1.349h-.077a2.844 2.844 0 0 1-.594.767 2.863 2.863 0 0 1-.953.57c-.379.14-.824.21-1.336.21Zm.601-1.7c.465 0 .867-.092 1.208-.275.341-.188.603-.435.786-.742a1.88 1.88 0 0 0 .282-1.003v-1.157c-.073.06-.196.115-.371.166a5.248 5.248 0 0 1-.575.134c-.213.039-.424.073-.633.103l-.544.076a4.029 4.029 0 0 0-.926.23 1.542 1.542 0 0 0-.646.448c-.158.188-.236.43-.236.729 0 .426.155.748.466.965.311.217.708.326 1.189.326Zm6.91 5.184v-13.5h2.275v1.623h.135c.119-.238.287-.492.505-.76.217-.273.511-.505.882-.697.37-.196.843-.294 1.419-.294.758 0 1.442.194 2.052.582.613.383 1.099.952 1.457 1.706.362.75.543 1.67.543 2.762 0 1.078-.177 1.994-.53 2.748-.354.755-.835 1.33-1.445 1.726-.609.396-1.3.595-2.071.595-.562 0-1.029-.094-1.4-.282a2.859 2.859 0 0 1-.895-.677 4.379 4.379 0 0 1-.517-.76h-.096v5.228H560.9Zm2.269-8.591c0 .635.09 1.191.269 1.668.183.477.445.85.786 1.119.345.264.763.396 1.253.396.511 0 .939-.136 1.284-.409.346-.277.605-.654.78-1.131.179-.482.269-1.03.269-1.643 0-.61-.088-1.15-.262-1.624-.175-.473-.435-.843-.78-1.112-.345-.268-.776-.403-1.291-.403-.495 0-.915.13-1.26.39s-.607.625-.786 1.093c-.175.47-.262 1.021-.262 1.656Zm11.295-.844V58h-2.314V44.91h2.263v4.94h.115c.23-.554.586-.99 1.067-1.31.486-.324 1.104-.486 1.854-.486.682 0 1.276.143 1.783.428a2.89 2.89 0 0 1 1.176 1.253c.282.55.422 1.221.422 2.014V58h-2.314v-5.894c0-.66-.17-1.174-.511-1.54-.337-.37-.81-.556-1.419-.556-.409 0-.776.09-1.099.268-.32.175-.572.429-.755.761-.179.332-.268.735-.268 1.208Z"/><path fill="#F3FAFF" fill-opacity=".9" d="M94.776 166v-1.142l3.03-2.97c.29-.293.53-.553.724-.78a2.84 2.84 0 0 0 .434-.661 1.63 1.63 0 0 0 .145-.681 1.29 1.29 0 0 0-.187-.708 1.246 1.246 0 0 0-.516-.46 1.662 1.662 0 0 0-.746-.162c-.286 0-.538.06-.754.179a1.235 1.235 0 0 0-.503.499 1.602 1.602 0 0 0-.174.771h-1.505c0-.554.127-1.036.38-1.445.252-.409.6-.726 1.044-.95.446-.224.957-.337 1.534-.337.585 0 1.1.11 1.542.329.444.218.787.518 1.032.899.247.38.37.815.37 1.304 0 .326-.062.647-.187.963-.125.315-.345.664-.66 1.048a16.69 16.69 0 0 1-1.317 1.393l-1.505 1.53v.06h3.802V166h-5.983Zm8.42.094a.915.915 0 0 1-.665-.273.884.884 0 0 1-.272-.665.875.875 0 0 1 .272-.656.915.915 0 0 1 .665-.273.9.9 0 0 1 .652.273.896.896 0 0 1 .149 1.129.977.977 0 0 1-.341.341.88.88 0 0 1-.46.124Zm5.352.025c-.613 0-1.159-.105-1.636-.315a2.74 2.74 0 0 1-1.125-.878 2.272 2.272 0 0 1-.439-1.3h1.602c.014.236.093.442.235.618.142.174.331.309.566.405.236.097.5.145.793.145.313 0 .59-.054.831-.162.241-.111.43-.264.567-.46.136-.196.203-.422.2-.678a1.178 1.178 0 0 0-.204-.699 1.379 1.379 0 0 0-.606-.473c-.261-.113-.576-.17-.946-.17h-.771v-1.219h.771c.304 0 .57-.052.797-.157.23-.106.411-.253.541-.444.131-.193.195-.416.192-.669a1.158 1.158 0 0 0-.166-.643 1.124 1.124 0 0 0-.473-.431 1.56 1.56 0 0 0-.712-.153c-.267 0-.514.048-.741.145a1.353 1.353 0 0 0-.55.413 1.047 1.047 0 0 0-.221.631h-1.522c.012-.489.152-.918.422-1.287a2.719 2.719 0 0 1 1.091-.869 3.61 3.61 0 0 1 1.53-.316c.582 0 1.088.11 1.517.329a2.46 2.46 0 0 1 1.001.873c.236.367.354.771.354 1.215.003.491-.142.903-.435 1.235-.289.333-.67.55-1.142.652v.069c.614.085 1.084.312 1.411.681.329.367.493.823.49 1.368 0 .489-.139.926-.418 1.313-.275.383-.656.684-1.142.903-.483.219-1.037.328-1.662.328Zm10.616-6.059a2.262 2.262 0 0 0-.294-.618 1.885 1.885 0 0 0-.443-.473 1.765 1.765 0 0 0-.588-.294 2.455 2.455 0 0 0-.724-.103c-.469 0-.887.118-1.253.354-.367.236-.655.583-.865 1.04-.208.454-.311 1.008-.311 1.662 0 .659.103 1.217.311 1.675.207.457.496.805.865 1.044.369.235.798.353 1.287.353.443 0 .826-.085 1.15-.255.327-.171.578-.412.755-.725.176-.315.264-.684.264-1.108l.358.056h-2.37v-1.236h3.542v1.048c0 .747-.159 1.394-.478 1.939a3.256 3.256 0 0 1-1.312 1.261c-.557.293-1.196.439-1.918.439-.804 0-1.51-.18-2.118-.541a3.746 3.746 0 0 1-1.419-1.547c-.338-.67-.507-1.466-.507-2.386 0-.705.1-1.334.299-1.888a4.063 4.063 0 0 1 .843-1.41c.361-.39.784-.685 1.27-.887a4.053 4.053 0 0 1 1.585-.307c.483 0 .934.071 1.351.213.418.14.789.339 1.112.597.327.259.596.565.806.921.21.355.348.747.413 1.176h-1.611Zm3.212 5.94v-8.727h3.341c.631 0 1.155.099 1.573.298.42.196.734.465.942.805.21.341.315.728.315 1.16 0 .355-.068.659-.205.911-.136.25-.319.454-.549.61a2.339 2.339 0 0 1-.772.336v.086c.31.017.607.112.891.285.287.171.521.412.703.725.182.312.273.69.273 1.133 0 .452-.11.858-.328 1.219-.219.358-.549.641-.989.848-.44.207-.994.311-1.662.311h-3.533Zm1.581-1.321h1.701c.574 0 .987-.109 1.24-.328a1.08 1.08 0 0 0 .383-.852 1.302 1.302 0 0 0-.737-1.194 1.816 1.816 0 0 0-.844-.183h-1.743v2.557Zm0-3.695h1.564c.273 0 .519-.049.738-.149.218-.102.39-.246.515-.43.128-.188.192-.409.192-.665 0-.338-.119-.616-.358-.835-.236-.219-.587-.328-1.053-.328h-1.598v2.407Zm264.044 55.182c-.701 0-1.304-.177-1.806-.532-.5-.358-.885-.874-1.155-1.547-.267-.676-.401-1.49-.401-2.442.003-.952.138-1.761.405-2.429.27-.671.655-1.182 1.155-1.534.503-.352 1.104-.529 1.802-.529.699 0 1.3.177 1.803.529.503.352.888.863 1.155 1.534.27.67.405 1.48.405 2.429 0 .954-.135 1.77-.405 2.446-.267.673-.652 1.187-1.155 1.543-.5.355-1.101.532-1.803.532Zm0-1.334c.546 0 .976-.268 1.292-.805.318-.54.477-1.334.477-2.382 0-.693-.073-1.276-.217-1.747-.145-.472-.35-.827-.614-1.066a1.346 1.346 0 0 0-.938-.362c-.542 0-.971.27-1.287.81-.315.537-.474 1.325-.477 2.365-.003.696.067 1.281.209 1.756.145.474.349.832.614 1.073.264.239.578.358.941.358Zm5.406 1.262a.914.914 0 0 1-.665-.273.889.889 0 0 1-.273-.665.88.88 0 0 1 .273-.656.914.914 0 0 1 .665-.273.9.9 0 0 1 .652.273.895.895 0 0 1 .149 1.129.977.977 0 0 1-.341.341.88.88 0 0 1-.46.124Zm5.414-8.941c.418.003.824.077 1.219.222.398.142.755.375 1.074.699.318.321.571.751.758 1.291.188.54.281 1.207.281 2.003.003.75-.076 1.42-.238 2.011-.159.588-.388 1.085-.686 1.492a3.039 3.039 0 0 1-1.078.929 3.098 3.098 0 0 1-1.419.319c-.552 0-1.04-.108-1.466-.324a2.737 2.737 0 0 1-1.027-.886 2.815 2.815 0 0 1-.482-1.287h1.555c.08.347.242.622.486.827.247.202.559.302.934.302.605 0 1.071-.262 1.397-.788.327-.526.49-1.256.49-2.19h-.059c-.14.25-.32.466-.542.647a2.466 2.466 0 0 1-.754.414 2.699 2.699 0 0 1-.886.145c-.512 0-.972-.122-1.381-.367a2.669 2.669 0 0 1-.967-1.005c-.236-.427-.355-.914-.358-1.462 0-.568.131-1.078.392-1.53a2.85 2.85 0 0 1 1.104-1.074c.471-.264 1.022-.393 1.653-.388Zm.004 1.279c-.307 0-.584.075-.831.226a1.596 1.596 0 0 0-.579.605 1.73 1.73 0 0 0-.209.848c.003.309.072.591.209.844.139.252.328.453.567.6.241.148.517.222.826.222a1.575 1.575 0 0 0 1.164-.499c.15-.159.267-.339.349-.541a1.59 1.59 0 0 0 .124-.639c0-.298-.071-.574-.213-.827a1.643 1.643 0 0 0-.576-.609 1.517 1.517 0 0 0-.831-.23Zm10.679 1.628a2.262 2.262 0 0 0-.294-.618 1.885 1.885 0 0 0-.443-.473 1.765 1.765 0 0 0-.588-.294 2.46 2.46 0 0 0-.724-.103c-.469 0-.887.118-1.253.354-.367.236-.655.583-.865 1.04-.208.454-.311 1.008-.311 1.662 0 .659.103 1.217.311 1.675.207.457.495.805.865 1.044.369.235.798.353 1.287.353.443 0 .826-.085 1.15-.255a1.8 1.8 0 0 0 .754-.725c.177-.315.265-.684.265-1.108l.358.056h-2.37v-1.236h3.542v1.048c0 .747-.16 1.394-.478 1.939a3.256 3.256 0 0 1-1.312 1.261c-.557.293-1.196.439-1.918.439-.804 0-1.51-.18-2.118-.541a3.746 3.746 0 0 1-1.419-1.547c-.338-.67-.507-1.466-.507-2.386 0-.705.1-1.334.298-1.888a4.08 4.08 0 0 1 .844-1.41c.361-.39.784-.685 1.27-.887a4.053 4.053 0 0 1 1.585-.307c.483 0 .933.071 1.351.213.418.14.788.339 1.112.597.327.259.595.565.806.921.21.355.348.747.413 1.176h-1.611Zm3.212 5.94v-8.727h3.341c.631 0 1.155.099 1.573.298.42.196.734.465.941.805.211.341.316.728.316 1.16 0 .355-.068.659-.205.911a1.71 1.71 0 0 1-.55.61c-.23.156-.487.268-.771.336v.086c.31.017.607.112.891.285.287.171.521.412.703.725.182.312.273.69.273 1.133 0 .452-.11.858-.328 1.219-.219.358-.549.641-.989.848-.44.207-.994.311-1.662.311h-3.533Zm1.581-1.321h1.701c.573 0 .987-.109 1.24-.328a1.08 1.08 0 0 0 .383-.852 1.302 1.302 0 0 0-.737-1.194 1.816 1.816 0 0 0-.844-.183h-1.743v2.557Zm0-3.695h1.564c.273 0 .519-.049.737-.149.219-.102.391-.246.516-.43.128-.188.192-.409.192-.665 0-.338-.12-.616-.358-.835-.236-.219-.587-.328-1.053-.328h-1.598v2.407Z"/></svg>
