<svg xmlns="http://www.w3.org/2000/svg" width="622" height="304" fill="none"><path fill="#1F273B" d="M0 5a5 5 0 0 1 5-5h612a5 5 0 0 1 5 5v294a5 5 0 0 1-5 5H5a5 5 0 0 1-5-5V5Z"/><path fill="#1991FF" d="M43 196h397v30H43z"/><path fill="#BE6819" d="M43 146h500v30H43zM493 40h15v15h-15z"/><path fill="#1991FF" d="M493 60h15v15h-15z"/><path fill="#fff" d="m515.642 52-2.386-8.727h1.074l1.823 7.108h.086l1.858-7.108h1.193l1.858 7.108h.085l1.824-7.108h1.074L521.744 52h-1.091l-1.926-6.955h-.068L516.733 52h-1.091Zm9.669 0v-6.545h1.006V52h-1.006Zm.511-7.636a.715.715 0 0 1-.507-.2.644.644 0 0 1-.208-.482c0-.188.069-.348.208-.482a.715.715 0 0 1 .507-.2.7.7 0 0 1 .503.2.637.637 0 0 1 .213.482.638.638 0 0 1-.213.481.7.7 0 0 1-.503.2Zm3.342 3.699V52h-1.005v-6.545h.971v1.022h.086c.153-.332.386-.6.698-.8.313-.205.716-.308 1.211-.308.443 0 .831.091 1.163.273.332.179.591.452.776.818.184.364.277.824.277 1.38V52h-1.006v-4.09c0-.515-.134-.916-.401-1.203-.267-.29-.633-.434-1.099-.434-.321 0-.608.07-.861.208a1.5 1.5 0 0 0-.592.61c-.145.267-.218.59-.218.971Zm8.486 4.073a2.563 2.563 0 0 1-1.445-.413c-.417-.278-.744-.67-.98-1.176-.236-.509-.354-1.11-.354-1.803 0-.687.118-1.284.354-1.79.236-.505.564-.896.985-1.171.42-.276.906-.414 1.457-.414.426 0 .763.071 1.01.213.25.14.44.299.571.478.133.176.237.32.311.434h.085v-3.221h1.006V52h-.972v-1.006h-.119c-.074.12-.179.27-.315.452-.137.179-.331.34-.584.482-.253.139-.59.208-1.01.208Zm.136-.903c.404 0 .745-.105 1.023-.315a1.98 1.98 0 0 0 .635-.883c.145-.377.217-.813.217-1.308 0-.488-.071-.916-.213-1.282a1.863 1.863 0 0 0-.631-.861c-.278-.208-.622-.311-1.031-.311-.426 0-.781.11-1.065.328-.281.216-.493.51-.635.882a3.51 3.51 0 0 0-.209 1.244c0 .466.071.89.213 1.27.145.378.358.68.639.904.284.221.637.332 1.057.332Zm7.504.903c-.59 0-1.109-.14-1.555-.422a2.868 2.868 0 0 1-1.04-1.18c-.247-.506-.37-1.096-.37-1.773 0-.681.123-1.277.37-1.785.25-.509.597-.904 1.04-1.185.446-.281.965-.422 1.555-.422.591 0 1.108.14 1.552.422.446.281.792.676 1.039 1.185.25.508.375 1.104.375 1.785 0 .676-.125 1.267-.375 1.773-.247.506-.593.9-1.039 1.18-.444.282-.961.422-1.552.422Zm0-.903c.449 0 .819-.115 1.108-.345.29-.23.505-.533.644-.908a3.48 3.48 0 0 0 .209-1.219c0-.437-.07-.845-.209-1.223a2.058 2.058 0 0 0-.644-.916c-.289-.233-.659-.35-1.108-.35-.448 0-.818.117-1.107.35-.29.233-.505.538-.644.916a3.515 3.515 0 0 0-.209 1.223c0 .438.07.844.209 1.22.139.374.354.677.644.907.289.23.659.345 1.107.345Zm5.762.767-1.994-6.545h1.056l1.415 5.01h.068l1.398-5.01h1.074l1.381 4.994h.068l1.415-4.994h1.056L555.995 52h-.989l-1.431-5.028h-.103L552.04 52h-.988Zm12.903-5.08-.903.256a1.682 1.682 0 0 0-.252-.439 1.215 1.215 0 0 0-.443-.358c-.187-.093-.427-.14-.72-.14-.4 0-.734.092-1.001.277-.265.181-.397.413-.397.694 0 .25.091.448.273.593.182.144.466.265.852.362l.972.238c.585.142 1.021.36 1.308.652.287.29.431.664.431 1.121 0 .375-.108.71-.324 1.006a2.151 2.151 0 0 1-.895.699c-.384.17-.83.255-1.338.255-.668 0-1.22-.145-1.658-.434-.437-.29-.714-.713-.831-1.27l.955-.239c.091.352.262.617.515.793.256.176.59.264 1.002.264.468 0 .841-.1 1.116-.298.279-.202.418-.444.418-.725a.762.762 0 0 0-.239-.57c-.159-.157-.403-.273-.733-.35l-1.091-.256c-.599-.142-1.039-.362-1.321-.66-.278-.301-.417-.678-.417-1.13 0-.369.103-.696.311-.98.21-.284.495-.507.856-.669a3.011 3.011 0 0 1 1.236-.243c.648 0 1.156.142 1.526.426.372.285.636.66.792 1.125Zm8.06-3.647V52h-1.057v-7.62h-.051l-2.131 1.415v-1.073l2.182-1.45h1.057Zm5.356 8.846c-.642 0-1.189-.174-1.641-.524-.451-.352-.796-.862-1.035-1.53-.239-.67-.358-1.48-.358-2.429 0-.943.119-1.748.358-2.416.241-.67.588-1.182 1.04-1.534.454-.355 1-.533 1.636-.533.636 0 1.18.178 1.632.533.455.352.801.864 1.04 1.534.241.668.362 1.473.362 2.416 0 .95-.119 1.759-.358 2.43-.238.667-.584 1.177-1.035 1.53-.452.349-.999.523-1.641.523Zm0-.937c.636 0 1.131-.307 1.483-.92.352-.614.528-1.49.528-2.626 0-.755-.081-1.399-.242-1.93-.16-.531-.39-.936-.691-1.215a1.522 1.522 0 0 0-1.078-.417c-.631 0-1.123.31-1.479.933-.355.62-.532 1.496-.532 2.63 0 .755.079 1.397.238 1.925.159.529.388.93.686 1.207.302.275.664.413 1.087.413ZM514.415 72h-1.108l3.204-8.727h1.091L520.807 72h-1.108l-2.608-7.347h-.068L514.415 72Zm.409-3.41h4.466v.938h-4.466v-.937Zm9.642-3.136v.853h-3.392v-.853h3.392Zm-2.403-1.568h1.006v6.239c0 .284.041.497.123.64a.64.64 0 0 0 .324.28c.134.046.274.069.422.069.111 0 .202-.006.273-.017l.17-.034.205.903a2.096 2.096 0 0 1-.286.077 2.1 2.1 0 0 1-.464.042c-.285 0-.563-.06-.836-.183a1.658 1.658 0 0 1-.673-.558c-.176-.25-.264-.566-.264-.946v-6.512Zm5.062-.613V72h-1.005v-8.727h1.005Zm3.768 8.88a2.66 2.66 0 0 1-1.129-.234 1.939 1.939 0 0 1-.805-.686c-.199-.301-.298-.665-.298-1.091 0-.375.073-.679.221-.912.148-.236.345-.42.592-.554.248-.133.52-.233.819-.298.301-.068.603-.122.907-.162.398-.051.72-.09.968-.115.25-.029.431-.075.545-.14.117-.066.175-.18.175-.342v-.034c0-.42-.115-.747-.345-.98-.228-.233-.573-.35-1.036-.35-.48 0-.856.106-1.129.316-.273.21-.465.435-.575.673l-.955-.34c.17-.398.398-.708.682-.93.287-.224.599-.38.937-.468a3.89 3.89 0 0 1 1.006-.137c.21 0 .452.026.724.077.276.048.542.15.797.303.259.153.473.385.644.694.17.31.255.725.255 1.245V72h-1.005v-.886h-.051a1.791 1.791 0 0 1-.341.456 1.97 1.97 0 0 1-.635.413c-.264.114-.587.17-.968.17Zm.154-.903c.398 0 .733-.078 1.006-.234a1.597 1.597 0 0 0 .835-1.385v-.92c-.043.05-.137.097-.281.14-.143.04-.307.075-.495.106a22.013 22.013 0 0 1-.963.128c-.261.034-.506.09-.733.166a1.263 1.263 0 0 0-.545.337c-.137.148-.205.35-.205.605 0 .35.129.614.388.793.261.176.592.264.993.264Zm9.318-4.33-.903.256a1.706 1.706 0 0 0-.251-.439 1.219 1.219 0 0 0-.444-.358c-.187-.094-.427-.14-.72-.14-.4 0-.734.092-1.001.277-.264.181-.396.413-.396.694 0 .25.09.448.272.593.182.144.466.265.853.362l.971.238c.585.142 1.021.36 1.308.652.287.29.431.664.431 1.121 0 .375-.108.71-.324 1.006a2.145 2.145 0 0 1-.895.699c-.384.17-.83.255-1.338.255-.668 0-1.22-.144-1.658-.434-.437-.29-.714-.713-.831-1.27l.955-.239c.091.353.263.617.515.793.256.176.59.264 1.002.264.469 0 .841-.1 1.116-.298.279-.202.418-.444.418-.725a.762.762 0 0 0-.239-.57c-.159-.157-.403-.273-.733-.35l-1.091-.256c-.599-.142-1.039-.362-1.321-.66-.278-.302-.417-.678-.417-1.13 0-.369.104-.696.311-.98a2.12 2.12 0 0 1 .856-.669 3.011 3.011 0 0 1 1.236-.243c.648 0 1.156.142 1.526.427.372.283.636.658.792 1.124Z"/><rect width="3" height="155" x="40" y="109" fill="#F3FAFF" rx="1.5"/><path fill="#fff" d="M41.291 58V44.91h4.91c1.005 0 1.849.187 2.53.562.687.375 1.204.89 1.554 1.547.354.651.53 1.393.53 2.224 0 .84-.176 1.585-.53 2.237a3.787 3.787 0 0 1-1.566 1.54c-.69.371-1.54.557-2.55.557h-3.254v-1.95h2.934c.588 0 1.07-.102 1.444-.307.375-.204.652-.486.831-.843a2.67 2.67 0 0 0 .275-1.234c0-.465-.092-.874-.275-1.227a1.867 1.867 0 0 0-.837-.825c-.375-.2-.859-.3-1.451-.3h-2.173V58H41.29Zm11.482 0v-9.818h2.243v1.636h.103c.179-.567.486-1.003.92-1.31.44-.311.94-.467 1.502-.467.128 0 .271.007.429.02.162.008.296.023.402.044v2.129a2.426 2.426 0 0 0-.466-.09 4.283 4.283 0 0 0-.608-.045c-.421 0-.8.092-1.137.275a2.011 2.011 0 0 0-.787.748c-.191.32-.287.688-.287 1.106V58h-2.314Zm11.015.192c-.959 0-1.79-.211-2.493-.633a4.297 4.297 0 0 1-1.636-1.77c-.384-.76-.575-1.645-.575-2.66 0-1.014.191-1.902.575-2.665a4.289 4.289 0 0 1 1.636-1.777c.703-.422 1.534-.633 2.493-.633.959 0 1.79.21 2.493.633a4.247 4.247 0 0 1 1.63 1.777c.388.763.582 1.651.582 2.665 0 1.015-.194 1.9-.582 2.66a4.255 4.255 0 0 1-1.63 1.77c-.703.422-1.534.633-2.493.633Zm.013-1.854c.52 0 .954-.143 1.304-.428.35-.29.61-.678.78-1.164a4.77 4.77 0 0 0 .262-1.623c0-.601-.088-1.144-.262-1.63-.17-.49-.43-.88-.78-1.17-.35-.29-.784-.434-1.304-.434-.533 0-.976.144-1.33.434-.35.29-.611.68-.786 1.17a4.901 4.901 0 0 0-.256 1.63c0 .596.086 1.138.256 1.623.175.486.437.874.786 1.164.354.285.797.428 1.33.428Zm10.938 1.854c-.98 0-1.822-.215-2.525-.646a4.311 4.311 0 0 1-1.617-1.783c-.375-.763-.562-1.64-.562-2.634 0-.997.191-1.877.575-2.64a4.293 4.293 0 0 1 1.624-1.79c.703-.43 1.534-.645 2.492-.645.797 0 1.502.147 2.116.441.618.29 1.11.701 1.477 1.234.366.528.575 1.146.626 1.853h-2.211a2.115 2.115 0 0 0-.64-1.182c-.332-.32-.777-.48-1.336-.48-.473 0-.888.128-1.246.384-.358.251-.637.614-.838 1.087-.196.473-.294 1.04-.294 1.7 0 .669.099 1.244.294 1.726.197.477.471.846.825 1.106a2.11 2.11 0 0 0 1.26.383 2.1 2.1 0 0 0 .913-.192c.273-.132.501-.321.684-.569a2.17 2.17 0 0 0 .378-.9h2.211a3.856 3.856 0 0 1-.613 1.846 3.64 3.64 0 0 1-1.445 1.253c-.61.299-1.325.448-2.148.448Zm10.453 0c-.985 0-1.835-.205-2.55-.614a4.155 4.155 0 0 1-1.643-1.751c-.384-.759-.576-1.652-.576-2.679 0-1.01.192-1.896.576-2.659a4.35 4.35 0 0 1 1.623-1.79c.695-.43 1.51-.645 2.448-.645.605 0 1.176.098 1.713.294.542.192 1.019.49 1.432.895.418.405.746.92.985 1.547.238.622.358 1.363.358 2.224v.71H81.51v-1.56h5.83a2.49 2.49 0 0 0-.288-1.183 2.09 2.09 0 0 0-.786-.824c-.333-.2-.72-.3-1.164-.3-.473 0-.888.115-1.246.345a2.38 2.38 0 0 0-.837.895 2.559 2.559 0 0 0-.301 1.208v1.361c0 .571.104 1.061.313 1.47.21.405.501.716.876.934.375.213.814.32 1.317.32a2.8 2.8 0 0 0 .914-.141c.272-.098.509-.241.71-.429.2-.187.35-.42.453-.696l2.16.242a3.367 3.367 0 0 1-.78 1.496c-.378.422-.864.75-1.457.985-.592.23-1.27.345-2.032.345Zm14.083-7.415-2.11.23a1.697 1.697 0 0 0-.313-.6 1.557 1.557 0 0 0-.588-.455c-.247-.115-.55-.172-.907-.172-.482 0-.887.104-1.215.313-.324.209-.483.48-.48.812a.85.85 0 0 0 .314.697c.217.179.575.326 1.074.44l1.675.359c.929.2 1.619.517 2.07.952.457.435.687 1.003.691 1.707a2.67 2.67 0 0 1-.543 1.636c-.354.469-.846.835-1.477 1.1-.63.264-1.355.396-2.173.396-1.202 0-2.17-.252-2.902-.755-.733-.507-1.17-1.212-1.31-2.115l2.256-.218c.102.444.32.778.652 1.004.332.226.765.339 1.297.339.55 0 .991-.113 1.324-.339.336-.226.505-.505.505-.837a.872.872 0 0 0-.326-.697c-.213-.183-.546-.324-.998-.422l-1.674-.352c-.942-.196-1.639-.526-2.09-.99-.452-.47-.676-1.061-.672-1.777-.004-.605.16-1.13.492-1.573.337-.447.804-.792 1.4-1.035.601-.247 1.294-.371 2.078-.371 1.15 0 2.056.245 2.716.735.665.49 1.076 1.153 1.234 1.988Zm9.879 0-2.109.23a1.69 1.69 0 0 0-.314-.6 1.559 1.559 0 0 0-.588-.455c-.247-.115-.549-.172-.907-.172-.482 0-.887.104-1.215.313-.324.209-.484.48-.479.812-.005.285.1.518.313.697.217.179.575.326 1.074.44l1.675.359c.928.2 1.619.517 2.071.952.456.435.686 1.003.69 1.707a2.667 2.667 0 0 1-.543 1.636c-.354.469-.846.835-1.477 1.1-.631.264-1.355.396-2.173.396-1.202 0-2.169-.252-2.902-.755-.733-.507-1.17-1.212-1.311-2.115l2.257-.218c.102.444.319.778.652 1.004.332.226.765.339 1.297.339.55 0 .991-.113 1.323-.339.337-.226.505-.505.505-.837a.87.87 0 0 0-.326-.697c-.213-.183-.545-.324-.997-.422l-1.674-.352c-.942-.196-1.639-.526-2.091-.99-.451-.47-.675-1.061-.671-1.777-.004-.605.16-1.13.492-1.573.337-.447.804-.792 1.4-1.035.601-.247 1.294-.371 2.078-.371 1.15 0 2.056.245 2.716.735.665.49 1.076 1.153 1.234 1.988ZM115.84 58V44.91h2.371v11.102h5.766V58h-8.137Zm12.918.198c-.622 0-1.182-.11-1.681-.332a2.747 2.747 0 0 1-1.176-.997c-.285-.44-.428-.98-.428-1.624 0-.554.102-1.012.307-1.374.204-.363.483-.652.837-.87a4.229 4.229 0 0 1 1.195-.492c.448-.115.91-.198 1.387-.25a51.501 51.501 0 0 0 1.4-.159c.358-.051.618-.128.78-.23.166-.106.249-.27.249-.492v-.038c0-.482-.142-.855-.428-1.12-.285-.263-.697-.395-1.234-.395-.566 0-1.016.123-1.348.37-.328.248-.55.54-.665.876l-2.161-.307c.171-.596.452-1.095.844-1.495a3.674 3.674 0 0 1 1.438-.908 5.506 5.506 0 0 1 1.88-.307 6.1 6.1 0 0 1 1.412.166c.469.111.897.294 1.285.55.388.251.699.594.933 1.029.239.435.358.978.358 1.63V58h-2.224v-1.349h-.077a2.81 2.81 0 0 1-.594.767 2.863 2.863 0 0 1-.953.57c-.379.14-.824.21-1.336.21Zm.601-1.7c.465 0 .867-.092 1.208-.275.341-.188.603-.435.787-.742.187-.306.281-.64.281-1.003v-1.157c-.073.06-.196.115-.371.166-.17.051-.362.096-.575.134-.213.039-.424.073-.633.103l-.543.076a4.025 4.025 0 0 0-.927.23 1.542 1.542 0 0 0-.646.448c-.158.188-.236.43-.236.729 0 .426.155.748.466.965.311.217.708.326 1.189.326Zm11.813-8.316v1.79h-5.644v-1.79h5.644Zm-4.251-2.352h2.314v9.217c0 .311.047.55.141.716a.757.757 0 0 0 .383.332c.158.06.332.09.524.09.145 0 .277-.011.397-.032.123-.022.217-.04.281-.058l.39 1.81a5.378 5.378 0 0 1-.531.14 4.34 4.34 0 0 1-.831.09 3.776 3.776 0 0 1-1.566-.263 2.441 2.441 0 0 1-1.106-.907c-.268-.41-.4-.921-.396-1.535v-9.6Zm10.427 12.362c-.984 0-1.835-.205-2.55-.614a4.15 4.15 0 0 1-1.643-1.751c-.384-.759-.575-1.652-.575-2.679 0-1.01.191-1.896.575-2.659a4.355 4.355 0 0 1 1.623-1.79c.695-.43 1.511-.645 2.449-.645.605 0 1.176.098 1.713.294.541.192 1.018.49 1.431.895.418.405.746.92.985 1.547.238.622.358 1.363.358 2.224v.71h-8.048v-1.56h5.83a2.492 2.492 0 0 0-.288-1.183 2.085 2.085 0 0 0-.786-.824c-.333-.2-.72-.3-1.163-.3-.473 0-.889.115-1.247.345a2.376 2.376 0 0 0-.837.895 2.583 2.583 0 0 0-.301 1.208v1.361c0 .571.105 1.061.314 1.47.208.405.5.716.875.934.375.213.814.32 1.317.32a2.8 2.8 0 0 0 .914-.141c.273-.098.509-.241.71-.429.2-.187.351-.42.453-.696l2.161.242a3.36 3.36 0 0 1-.78 1.496c-.379.422-.865.75-1.457.985-.593.23-1.27.345-2.033.345Zm8.637-5.945V58h-2.314v-9.818h2.212v1.668h.115c.226-.55.586-.986 1.08-1.31.499-.324 1.115-.486 1.848-.486.677 0 1.267.145 1.77.435.507.29.899.71 1.176 1.259.282.55.42 1.217.416 2V58h-2.314v-5.894c0-.656-.171-1.17-.511-1.54-.337-.37-.804-.556-1.4-.556-.405 0-.765.09-1.081.268a1.862 1.862 0 0 0-.735.761c-.174.332-.262.735-.262 1.208Zm12.938 5.945c-.98 0-1.822-.215-2.525-.646a4.308 4.308 0 0 1-1.617-1.783c-.375-.763-.563-1.64-.563-2.634 0-.997.192-1.877.576-2.64a4.288 4.288 0 0 1 1.623-1.79c.703-.43 1.534-.645 2.493-.645.797 0 1.502.147 2.116.441a3.61 3.61 0 0 1 1.476 1.234c.367.528.576 1.146.627 1.853h-2.212a2.109 2.109 0 0 0-.639-1.182c-.333-.32-.778-.48-1.336-.48a2.09 2.09 0 0 0-1.247.384c-.357.251-.637.614-.837 1.087-.196.473-.294 1.04-.294 1.7 0 .669.098 1.244.294 1.726.196.477.471.846.825 1.106.358.255.777.383 1.259.383.341 0 .646-.064.914-.192.273-.132.501-.321.684-.569.183-.247.309-.547.377-.9h2.212a3.86 3.86 0 0 1-.614 1.846c-.354.533-.835.95-1.445 1.253-.609.299-1.325.448-2.147.448Zm7.544 3.49a4.69 4.69 0 0 1-.876-.077 3.26 3.26 0 0 1-.633-.166l.537-1.803a3.1 3.1 0 0 0 .902.141c.264-.004.496-.087.696-.25.205-.157.378-.421.518-.792l.198-.53-3.56-10.023h2.454l2.263 7.415h.103l2.269-7.415h2.461l-3.931 11.007a4.44 4.44 0 0 1-.729 1.336c-.303.375-.673.66-1.112.856-.435.2-.955.3-1.56.3Zm22.27-12.593a3.416 3.416 0 0 0-.441-.926 2.848 2.848 0 0 0-.665-.71 2.687 2.687 0 0 0-.882-.44 3.68 3.68 0 0 0-1.087-.154c-.703 0-1.329.176-1.879.53-.55.354-.982.874-1.298 1.56-.311.682-.466 1.513-.466 2.493 0 .988.155 1.826.466 2.512.312.686.744 1.208 1.298 1.566.554.354 1.197.53 1.93.53.665 0 1.24-.127 1.726-.383a2.71 2.71 0 0 0 1.132-1.087c.264-.473.396-1.027.396-1.662l.537.083h-3.554v-1.853h5.312v1.572c0 1.12-.239 2.09-.716 2.909a4.892 4.892 0 0 1-1.969 1.892c-.835.438-1.794.658-2.876.658-1.206 0-2.265-.27-3.177-.812-.908-.545-1.617-1.319-2.129-2.32-.507-1.006-.76-2.199-.76-3.58 0-1.056.149-2 .447-2.831.303-.831.724-1.537 1.266-2.116a5.388 5.388 0 0 1 1.904-1.33 6.07 6.07 0 0 1 2.378-.46c.725 0 1.4.107 2.027.32a5.375 5.375 0 0 1 1.668.895 4.876 4.876 0 0 1 1.828 3.144h-2.416ZM203.453 58v-9.818h2.243v1.636h.102c.179-.567.486-1.003.921-1.31.439-.311.94-.467 1.502-.467.128 0 .271.007.428.02.162.008.296.023.403.044v2.129a2.433 2.433 0 0 0-.467-.09 4.272 4.272 0 0 0-.607-.045c-.422 0-.801.092-1.138.275a2.015 2.015 0 0 0-.786.748c-.192.32-.287.688-.287 1.106V58h-2.314Zm9.786.198c-.622 0-1.183-.11-1.681-.332a2.735 2.735 0 0 1-1.176-.997c-.286-.44-.429-.98-.429-1.624 0-.554.103-1.012.307-1.374.205-.363.484-.652.837-.87a4.235 4.235 0 0 1 1.196-.492c.447-.115.91-.198 1.387-.25a54.46 54.46 0 0 0 1.4-.159c.358-.051.618-.128.78-.23.166-.106.249-.27.249-.492v-.038c0-.482-.143-.855-.428-1.12-.286-.263-.697-.395-1.234-.395-.567 0-1.016.123-1.349.37-.328.248-.55.54-.665.876l-2.16-.307c.17-.596.452-1.095.844-1.495a3.667 3.667 0 0 1 1.438-.908 5.5 5.5 0 0 1 1.879-.307c.473 0 .944.055 1.413.166.469.111.897.294 1.285.55.387.251.698.594.933 1.029.238.435.358.978.358 1.63V58h-2.225v-1.349h-.076a2.828 2.828 0 0 1-.595.767 2.858 2.858 0 0 1-.952.57c-.38.14-.825.21-1.336.21Zm.601-1.7c.464 0 .867-.092 1.208-.275.341-.188.603-.435.786-.742.187-.306.281-.64.281-1.003v-1.157c-.072.06-.196.115-.371.166-.17.051-.362.096-.575.134-.213.039-.424.073-.633.103l-.543.076a4.05 4.05 0 0 0-.927.23 1.538 1.538 0 0 0-.645.448c-.158.188-.237.43-.237.729 0 .426.156.748.467.965.311.217.707.326 1.189.326Zm6.909 5.184v-13.5h2.276v1.623h.134c.12-.238.288-.492.505-.76.218-.273.512-.505.882-.697.371-.196.844-.294 1.419-.294a3.74 3.74 0 0 1 2.052.582c.614.383 1.1.952 1.458 1.706.362.75.543 1.67.543 2.762 0 1.078-.177 1.994-.531 2.748-.353.755-.835 1.33-1.444 1.726a3.72 3.72 0 0 1-2.071.595c-.563 0-1.029-.094-1.4-.282a2.847 2.847 0 0 1-.895-.677 4.39 4.39 0 0 1-.518-.76h-.096v5.228h-2.314Zm2.27-8.591c0 .635.089 1.191.268 1.668.183.477.445.85.786 1.119.346.264.763.396 1.253.396.512 0 .94-.136 1.285-.409.345-.277.605-.654.78-1.131.179-.482.268-1.03.268-1.643 0-.61-.087-1.15-.262-1.624-.175-.473-.434-.843-.78-1.112-.345-.268-.775-.403-1.291-.403-.494 0-.914.13-1.259.39-.345.26-.607.625-.786 1.093-.175.47-.262 1.021-.262 1.656Zm11.294-.844V58h-2.314V44.91h2.263v4.94h.115c.23-.554.586-.99 1.068-1.31.486-.324 1.103-.486 1.853-.486.682 0 1.277.143 1.784.428a2.89 2.89 0 0 1 1.176 1.253c.281.55.422 1.221.422 2.014V58h-2.314v-5.894c0-.66-.171-1.174-.511-1.54-.337-.37-.81-.556-1.419-.556-.41 0-.776.09-1.1.268a1.88 1.88 0 0 0-.754.761c-.179.332-.269.735-.269 1.208Z"/><path fill="#F3FAFF" fill-opacity=".9" d="M505.423 166.119c-.613 0-1.159-.105-1.636-.315a2.74 2.74 0 0 1-1.125-.878 2.272 2.272 0 0 1-.439-1.3h1.602c.014.236.093.442.235.618.142.174.331.309.566.405.236.097.5.145.793.145.313 0 .59-.054.831-.162.241-.111.43-.264.567-.46.136-.196.203-.422.2-.678a1.172 1.172 0 0 0-.205-.699 1.37 1.37 0 0 0-.605-.473c-.261-.113-.576-.17-.946-.17h-.771v-1.219h.771c.304 0 .57-.052.797-.157.23-.106.411-.253.541-.444.131-.193.195-.416.192-.669a1.158 1.158 0 0 0-.166-.643 1.124 1.124 0 0 0-.473-.431 1.56 1.56 0 0 0-.712-.153c-.267 0-.514.048-.741.145a1.353 1.353 0 0 0-.55.413 1.047 1.047 0 0 0-.221.631h-1.522c.012-.489.152-.918.422-1.287a2.719 2.719 0 0 1 1.091-.869 3.61 3.61 0 0 1 1.53-.316c.582 0 1.088.11 1.517.329a2.46 2.46 0 0 1 1.001.873c.236.367.354.771.354 1.215.003.491-.142.903-.435 1.235-.289.333-.67.55-1.142.652v.069c.614.085 1.084.312 1.411.681.329.367.493.823.49 1.368 0 .489-.139.926-.418 1.313-.275.383-.656.684-1.142.903-.483.219-1.037.328-1.662.328Zm5.394-.025a.915.915 0 0 1-.665-.273.884.884 0 0 1-.272-.665.875.875 0 0 1 .272-.656.915.915 0 0 1 .665-.273.9.9 0 0 1 .652.273.896.896 0 0 1 .149 1.129.977.977 0 0 1-.341.341.88.88 0 0 1-.46.124Zm5.399.072c-.701 0-1.304-.177-1.807-.532-.5-.358-.884-.874-1.154-1.547-.267-.676-.401-1.49-.401-2.442.003-.952.138-1.761.405-2.429.27-.671.655-1.182 1.155-1.534.503-.352 1.103-.529 1.802-.529.699 0 1.3.177 1.803.529.503.352.888.863 1.155 1.534.27.67.404 1.48.404 2.429 0 .954-.134 1.77-.404 2.446-.267.673-.652 1.187-1.155 1.543-.5.355-1.101.532-1.803.532Zm0-1.334c.546 0 .976-.268 1.291-.805.319-.54.478-1.334.478-2.382 0-.693-.073-1.276-.218-1.747-.144-.472-.349-.827-.613-1.066a1.346 1.346 0 0 0-.938-.362c-.542 0-.971.27-1.287.81-.315.537-.474 1.325-.477 2.365-.003.696.067 1.281.209 1.756.145.474.349.832.614 1.073.264.239.578.358.941.358Zm7.808-7.679c.418.003.824.077 1.219.222.398.142.756.375 1.074.699.318.321.571.751.758 1.291.188.54.282 1.207.282 2.003.002.75-.077 1.42-.239 2.011-.159.588-.388 1.085-.686 1.492a3.03 3.03 0 0 1-1.078.929 3.098 3.098 0 0 1-1.419.319c-.551 0-1.04-.108-1.466-.324a2.737 2.737 0 0 1-1.027-.886 2.815 2.815 0 0 1-.482-1.287h1.556c.079.347.241.622.485.827.248.202.559.302.934.302.605 0 1.071-.262 1.397-.788.327-.526.49-1.256.49-2.19h-.059c-.139.25-.32.466-.541.647a2.472 2.472 0 0 1-.755.414 2.699 2.699 0 0 1-.886.145c-.511 0-.972-.122-1.381-.367a2.676 2.676 0 0 1-.967-1.005c-.236-.427-.355-.914-.358-1.462 0-.568.131-1.078.392-1.53a2.85 2.85 0 0 1 1.104-1.074c.471-.264 1.022-.393 1.653-.388Zm.004 1.279c-.306 0-.583.075-.831.226a1.596 1.596 0 0 0-.579.605 1.73 1.73 0 0 0-.209.848c.003.309.073.591.209.844.139.252.328.453.567.6.241.148.517.222.826.222a1.575 1.575 0 0 0 1.164-.499c.15-.159.267-.339.349-.541.085-.201.127-.415.124-.639 0-.298-.071-.574-.213-.827a1.643 1.643 0 0 0-.576-.609 1.517 1.517 0 0 0-.831-.23ZM399.76 216v-1.142l3.03-2.97c.29-.293.531-.553.724-.78a2.86 2.86 0 0 0 .435-.661c.096-.213.145-.44.145-.681a1.29 1.29 0 0 0-.188-.708 1.249 1.249 0 0 0-.515-.46 1.666 1.666 0 0 0-.746-.162c-.287 0-.538.06-.754.179a1.233 1.233 0 0 0-.503.499 1.596 1.596 0 0 0-.175.771h-1.504c0-.554.126-1.036.379-1.445a2.558 2.558 0 0 1 1.044-.95c.446-.224.957-.337 1.534-.337.585 0 1.1.11 1.543.329.443.218.787.518 1.031.899.247.38.371.815.371 1.304 0 .326-.063.647-.188.963-.125.315-.345.664-.66 1.048a16.69 16.69 0 0 1-1.317 1.393l-1.504 1.53v.06h3.801V216h-5.983Zm8.42.094a.911.911 0 0 1-.664-.273.881.881 0 0 1-.273-.665.872.872 0 0 1 .273-.656.911.911 0 0 1 .664-.273c.25 0 .468.091.652.273a.896.896 0 0 1 .15 1.129.985.985 0 0 1-.341.341.885.885 0 0 1-.461.124Zm5.442.025c-.568 0-1.077-.106-1.525-.319a2.721 2.721 0 0 1-1.07-.887 2.349 2.349 0 0 1-.418-1.287h1.534c.029.358.184.651.465.878.281.225.619.337 1.014.337a1.534 1.534 0 0 0 1.398-.805c.139-.253.207-.542.204-.866a1.74 1.74 0 0 0-.208-.877 1.562 1.562 0 0 0-.584-.601 1.625 1.625 0 0 0-.852-.222 2.037 2.037 0 0 0-.772.145c-.253.099-.453.23-.601.392l-1.427-.234.456-4.5h5.062v1.321h-3.754l-.251 2.314h.051c.162-.191.39-.348.686-.473.295-.128.619-.192.971-.192.529 0 1 .125 1.415.375.415.247.742.588.98 1.023.239.434.358.931.358 1.491 0 .577-.133 1.091-.4 1.543a2.84 2.84 0 0 1-1.104 1.061c-.469.255-1.011.383-1.628.383Zm7.594 0c-.568 0-1.077-.106-1.526-.319a2.718 2.718 0 0 1-1.069-.887 2.34 2.34 0 0 1-.418-1.287h1.534c.029.358.183.651.465.878.281.225.619.337 1.014.337.31 0 .585-.071.827-.213a1.54 1.54 0 0 0 .571-.592c.139-.253.207-.542.204-.866a1.74 1.74 0 0 0-.209-.877 1.56 1.56 0 0 0-.583-.601 1.631 1.631 0 0 0-.853-.222 2.036 2.036 0 0 0-.771.145c-.253.099-.453.23-.601.392l-1.427-.234.456-4.5h5.062v1.321h-3.754l-.252 2.314h.052c.161-.191.39-.348.686-.473.295-.128.619-.192.971-.192.529 0 1 .125 1.415.375.415.247.741.588.98 1.023.239.434.358.931.358 1.491 0 .577-.134 1.091-.401 1.543a2.837 2.837 0 0 1-1.103 1.061c-.469.255-1.012.383-1.628.383Z"/></svg>
