<svg xmlns="http://www.w3.org/2000/svg" width="622" height="304" fill="none"><path fill="#1F273B" d="M0 5a5 5 0 0 1 5-5h612a5 5 0 0 1 5 5v294a5 5 0 0 1-5 5H5a5 5 0 0 1-5-5V5Z"/><path fill="#1991FF" d="M43 196h170v30H43z"/><path fill="#BE6819" d="M43 146h500v30H43zM493 40h15v15h-15z"/><path fill="#1991FF" d="M493 60h15v15h-15z"/><path fill="#F3FAFF" fill-opacity=".9" d="M511.974 157.273V166h-1.581v-7.189h-.051l-2.042 1.304v-1.449l2.169-1.393h1.505Zm2.058 7.108v-1.257l3.703-5.851h1.048v1.789h-.639l-2.493 3.951v.068h5.169v1.3h-6.788Zm4.163 1.619v-2.003l.017-.562v-6.162h1.492V166h-1.509Zm7.021.119c-.568 0-1.077-.106-1.526-.319a2.718 2.718 0 0 1-1.069-.887 2.34 2.34 0 0 1-.418-1.287h1.534c.029.358.183.651.465.878.281.225.619.337 1.014.337.31 0 .585-.071.827-.213a1.54 1.54 0 0 0 .571-.592c.139-.253.207-.542.204-.866a1.74 1.74 0 0 0-.209-.877 1.56 1.56 0 0 0-.583-.601 1.631 1.631 0 0 0-.853-.222 2.036 2.036 0 0 0-.771.145c-.253.099-.453.23-.601.392l-1.427-.234.456-4.5h5.062v1.321h-3.754l-.252 2.314h.052c.161-.191.39-.348.686-.473.295-.128.619-.192.971-.192.529 0 1 .125 1.415.375.415.247.741.588.98 1.023.239.434.358.931.358 1.491 0 .577-.134 1.091-.401 1.543a2.837 2.837 0 0 1-1.103 1.061c-.469.255-1.012.383-1.628.383Zm-338.718 50c-.614 0-1.16-.105-1.637-.315a2.74 2.74 0 0 1-1.125-.878 2.279 2.279 0 0 1-.439-1.3h1.603c.014.236.092.442.234.618.142.174.331.309.567.405.235.097.5.145.792.145.313 0 .59-.054.831-.162.242-.111.431-.264.567-.46.136-.196.203-.422.2-.678a1.178 1.178 0 0 0-.204-.699 1.376 1.376 0 0 0-.605-.473c-.262-.113-.577-.17-.946-.17h-.772v-1.219h.772c.304 0 .569-.052.796-.157a1.29 1.29 0 0 0 .542-.444c.13-.193.194-.416.191-.669a1.158 1.158 0 0 0-.166-.643 1.124 1.124 0 0 0-.473-.431 1.556 1.556 0 0 0-.711-.153 1.87 1.87 0 0 0-.742.145 1.36 1.36 0 0 0-.55.413 1.047 1.047 0 0 0-.221.631h-1.522c.012-.489.152-.918.422-1.287a2.726 2.726 0 0 1 1.091-.869 3.61 3.61 0 0 1 1.53-.316c.582 0 1.088.11 1.517.329a2.47 2.47 0 0 1 1.002.873c.235.367.353.771.353 1.215.003.491-.142.903-.434 1.235-.29.333-.671.55-1.142.652v.069c.613.085 1.083.312 1.41.681.33.367.493.823.49 1.368 0 .489-.139.926-.418 1.313-.275.383-.656.684-1.142.903-.483.219-1.036.328-1.661.328Zm7.718 0c-.568 0-1.077-.106-1.526-.319a2.718 2.718 0 0 1-1.069-.887 2.34 2.34 0 0 1-.418-1.287h1.534c.029.358.183.651.465.878.281.225.619.337 1.014.337.31 0 .585-.071.827-.213a1.54 1.54 0 0 0 .571-.592c.139-.253.207-.542.204-.866a1.74 1.74 0 0 0-.209-.877 1.56 1.56 0 0 0-.583-.601 1.631 1.631 0 0 0-.853-.222 2.036 2.036 0 0 0-.771.145c-.253.099-.453.23-.601.392l-1.427-.234.456-4.5h5.062v1.321h-3.754l-.252 2.314h.052c.161-.191.39-.348.686-.473.295-.128.619-.192.971-.192.529 0 1 .125 1.415.375.415.247.741.588.98 1.023.239.434.358.931.358 1.491 0 .577-.134 1.091-.401 1.543a2.837 2.837 0 0 1-1.103 1.061c-.469.255-1.012.383-1.628.383Z"/><path fill="#fff" d="m515.642 52-2.386-8.727h1.074l1.823 7.108h.086l1.858-7.108h1.193l1.858 7.108h.085l1.824-7.108h1.074L521.744 52h-1.091l-1.926-6.955h-.068L516.733 52h-1.091Zm9.669 0v-6.545h1.006V52h-1.006Zm.511-7.636a.715.715 0 0 1-.507-.2.644.644 0 0 1-.208-.482c0-.188.069-.348.208-.482a.715.715 0 0 1 .507-.2.7.7 0 0 1 .503.2.637.637 0 0 1 .213.482.638.638 0 0 1-.213.481.7.7 0 0 1-.503.2Zm3.342 3.699V52h-1.005v-6.545h.971v1.022h.086c.153-.332.386-.6.698-.8.313-.205.716-.308 1.211-.308.443 0 .831.091 1.163.273.332.179.591.452.776.818.184.364.277.824.277 1.38V52h-1.006v-4.09c0-.515-.134-.916-.401-1.203-.267-.29-.633-.434-1.099-.434-.321 0-.608.07-.861.208a1.5 1.5 0 0 0-.592.61c-.145.267-.218.59-.218.971Zm8.486 4.073a2.563 2.563 0 0 1-1.445-.413c-.417-.278-.744-.67-.98-1.176-.236-.509-.354-1.11-.354-1.803 0-.687.118-1.284.354-1.79.236-.505.564-.896.985-1.171.42-.276.906-.414 1.457-.414.426 0 .763.071 1.01.213.25.14.44.299.571.478.133.176.237.32.311.434h.085v-3.221h1.006V52h-.972v-1.006h-.119c-.074.12-.179.27-.315.452-.137.179-.331.34-.584.482-.253.139-.59.208-1.01.208Zm.136-.903c.404 0 .745-.105 1.023-.315a1.98 1.98 0 0 0 .635-.883c.145-.377.217-.813.217-1.308 0-.488-.071-.916-.213-1.282a1.863 1.863 0 0 0-.631-.861c-.278-.208-.622-.311-1.031-.311-.426 0-.781.11-1.065.328-.281.216-.493.51-.635.882a3.51 3.51 0 0 0-.209 1.244c0 .466.071.89.213 1.27.145.378.358.68.639.904.284.221.637.332 1.057.332Zm7.504.903c-.59 0-1.109-.14-1.555-.422a2.868 2.868 0 0 1-1.04-1.18c-.247-.506-.37-1.096-.37-1.773 0-.681.123-1.277.37-1.785.25-.509.597-.904 1.04-1.185.446-.281.965-.422 1.555-.422.591 0 1.108.14 1.552.422.446.281.792.676 1.039 1.185.25.508.375 1.104.375 1.785 0 .676-.125 1.267-.375 1.773-.247.506-.593.9-1.039 1.18-.444.282-.961.422-1.552.422Zm0-.903c.449 0 .819-.115 1.108-.345.29-.23.505-.533.644-.908a3.48 3.48 0 0 0 .209-1.219c0-.437-.07-.845-.209-1.223a2.058 2.058 0 0 0-.644-.916c-.289-.233-.659-.35-1.108-.35-.448 0-.818.117-1.107.35-.29.233-.505.538-.644.916a3.515 3.515 0 0 0-.209 1.223c0 .438.07.844.209 1.22.139.374.354.677.644.907.289.23.659.345 1.107.345Zm5.762.767-1.994-6.545h1.056l1.415 5.01h.068l1.398-5.01h1.074l1.381 4.994h.068l1.415-4.994h1.056L555.995 52h-.989l-1.431-5.028h-.103L552.04 52h-.988Zm12.903-5.08-.903.256a1.682 1.682 0 0 0-.252-.439 1.215 1.215 0 0 0-.443-.358c-.187-.093-.427-.14-.72-.14-.4 0-.734.092-1.001.277-.265.181-.397.413-.397.694 0 .25.091.448.273.593.182.144.466.265.852.362l.972.238c.585.142 1.021.36 1.308.652.287.29.431.664.431 1.121 0 .375-.108.71-.324 1.006a2.151 2.151 0 0 1-.895.699c-.384.17-.83.255-1.338.255-.668 0-1.22-.145-1.658-.434-.437-.29-.714-.713-.831-1.27l.955-.239c.091.352.262.617.515.793.256.176.59.264 1.002.264.468 0 .841-.1 1.116-.298.279-.202.418-.444.418-.725a.762.762 0 0 0-.239-.57c-.159-.157-.403-.273-.733-.35l-1.091-.256c-.599-.142-1.039-.362-1.321-.66-.278-.301-.417-.678-.417-1.13 0-.369.103-.696.311-.98.21-.284.495-.507.856-.669a3.011 3.011 0 0 1 1.236-.243c.648 0 1.156.142 1.526.426.372.285.636.66.792 1.125Zm8.06-3.647V52h-1.057v-7.62h-.051l-2.131 1.415v-1.073l2.182-1.45h1.057Zm5.356 8.846c-.642 0-1.189-.174-1.641-.524-.451-.352-.796-.862-1.035-1.53-.239-.67-.358-1.48-.358-2.429 0-.943.119-1.748.358-2.416.241-.67.588-1.182 1.04-1.534.454-.355 1-.533 1.636-.533.636 0 1.18.178 1.632.533.455.352.801.864 1.04 1.534.241.668.362 1.473.362 2.416 0 .95-.119 1.759-.358 2.43-.238.667-.584 1.177-1.035 1.53-.452.349-.999.523-1.641.523Zm0-.937c.636 0 1.131-.307 1.483-.92.352-.614.528-1.49.528-2.626 0-.755-.081-1.399-.242-1.93-.16-.531-.39-.936-.691-1.215a1.522 1.522 0 0 0-1.078-.417c-.631 0-1.123.31-1.479.933-.355.62-.532 1.496-.532 2.63 0 .755.079 1.397.238 1.925.159.529.388.93.686 1.207.302.275.664.413 1.087.413ZM514.415 72h-1.108l3.204-8.727h1.091L520.807 72h-1.108l-2.608-7.347h-.068L514.415 72Zm.409-3.41h4.466v.938h-4.466v-.937Zm9.642-3.136v.853h-3.392v-.853h3.392Zm-2.403-1.568h1.006v6.239c0 .284.041.497.123.64a.64.64 0 0 0 .324.28c.134.046.274.069.422.069.111 0 .202-.006.273-.017l.17-.034.205.903a2.096 2.096 0 0 1-.286.077 2.1 2.1 0 0 1-.464.042c-.285 0-.563-.06-.836-.183a1.658 1.658 0 0 1-.673-.558c-.176-.25-.264-.566-.264-.946v-6.512Zm5.062-.613V72h-1.005v-8.727h1.005Zm3.768 8.88a2.66 2.66 0 0 1-1.129-.234 1.939 1.939 0 0 1-.805-.686c-.199-.301-.298-.665-.298-1.091 0-.375.073-.679.221-.912.148-.236.345-.42.592-.554.248-.133.52-.233.819-.298.301-.068.603-.122.907-.162.398-.051.72-.09.968-.115.25-.029.431-.075.545-.14.117-.066.175-.18.175-.342v-.034c0-.42-.115-.747-.345-.98-.228-.233-.573-.35-1.036-.35-.48 0-.856.106-1.129.316-.273.21-.465.435-.575.673l-.955-.34c.17-.398.398-.708.682-.93.287-.224.599-.38.937-.468a3.89 3.89 0 0 1 1.006-.137c.21 0 .452.026.724.077.276.048.542.15.797.303.259.153.473.385.644.694.17.31.255.725.255 1.245V72h-1.005v-.886h-.051a1.791 1.791 0 0 1-.341.456 1.97 1.97 0 0 1-.635.413c-.264.114-.587.17-.968.17Zm.154-.903c.398 0 .733-.078 1.006-.234a1.597 1.597 0 0 0 .835-1.385v-.92c-.043.05-.137.097-.281.14-.143.04-.307.075-.495.106a22.013 22.013 0 0 1-.963.128c-.261.034-.506.09-.733.166a1.263 1.263 0 0 0-.545.337c-.137.148-.205.35-.205.605 0 .35.129.614.388.793.261.176.592.264.993.264Zm9.318-4.33-.903.256a1.706 1.706 0 0 0-.251-.439 1.219 1.219 0 0 0-.444-.358c-.187-.094-.427-.14-.72-.14-.4 0-.734.092-1.001.277-.264.181-.396.413-.396.694 0 .25.09.448.272.593.182.144.466.265.853.362l.971.238c.585.142 1.021.36 1.308.652.287.29.431.664.431 1.121 0 .375-.108.71-.324 1.006a2.145 2.145 0 0 1-.895.699c-.384.17-.83.255-1.338.255-.668 0-1.22-.144-1.658-.434-.437-.29-.714-.713-.831-1.27l.955-.239c.091.353.263.617.515.793.256.176.59.264 1.002.264.469 0 .841-.1 1.116-.298.279-.202.418-.444.418-.725a.762.762 0 0 0-.239-.57c-.159-.157-.403-.273-.733-.35l-1.091-.256c-.599-.142-1.039-.362-1.321-.66-.278-.302-.417-.678-.417-1.13 0-.369.104-.696.311-.98a2.12 2.12 0 0 1 .856-.669 3.011 3.011 0 0 1 1.236-.243c.648 0 1.156.142 1.526.427.372.283.636.658.792 1.124Z"/><rect width="3" height="155" x="40" y="109" fill="#F3FAFF" rx="1.5"/><path fill="#fff" d="M41.291 58V44.91h4.91c1.005 0 1.849.187 2.53.562.687.375 1.204.89 1.554 1.547.354.651.53 1.393.53 2.224 0 .84-.176 1.585-.53 2.237a3.787 3.787 0 0 1-1.566 1.54c-.69.371-1.54.557-2.55.557h-3.254v-1.95h2.934c.588 0 1.07-.102 1.444-.307.375-.204.652-.486.831-.843a2.67 2.67 0 0 0 .275-1.234c0-.465-.092-.874-.275-1.227a1.867 1.867 0 0 0-.837-.825c-.375-.2-.859-.3-1.451-.3h-2.173V58H41.29Zm11.482 0v-9.818h2.243v1.636h.103c.179-.567.486-1.003.92-1.31.44-.311.94-.467 1.502-.467.128 0 .271.007.429.02.162.008.296.023.402.044v2.129a2.426 2.426 0 0 0-.466-.09 4.283 4.283 0 0 0-.608-.045c-.421 0-.8.092-1.137.275a2.011 2.011 0 0 0-.787.748c-.191.32-.287.688-.287 1.106V58h-2.314Zm11.015.192c-.959 0-1.79-.211-2.493-.633a4.297 4.297 0 0 1-1.636-1.77c-.384-.76-.575-1.645-.575-2.66 0-1.014.191-1.902.575-2.665a4.289 4.289 0 0 1 1.636-1.777c.703-.422 1.534-.633 2.493-.633.959 0 1.79.21 2.493.633a4.247 4.247 0 0 1 1.63 1.777c.388.763.582 1.651.582 2.665 0 1.015-.194 1.9-.582 2.66a4.255 4.255 0 0 1-1.63 1.77c-.703.422-1.534.633-2.493.633Zm.013-1.854c.52 0 .954-.143 1.304-.428.35-.29.61-.678.78-1.164a4.77 4.77 0 0 0 .262-1.623c0-.601-.088-1.144-.262-1.63-.17-.49-.43-.88-.78-1.17-.35-.29-.784-.434-1.304-.434-.533 0-.976.144-1.33.434-.35.29-.611.68-.786 1.17a4.901 4.901 0 0 0-.256 1.63c0 .596.086 1.138.256 1.623.175.486.437.874.786 1.164.354.285.797.428 1.33.428Zm10.938 1.854c-.98 0-1.822-.215-2.525-.646a4.311 4.311 0 0 1-1.617-1.783c-.375-.763-.562-1.64-.562-2.634 0-.997.191-1.877.575-2.64a4.293 4.293 0 0 1 1.624-1.79c.703-.43 1.534-.645 2.492-.645.797 0 1.502.147 2.116.441.618.29 1.11.701 1.477 1.234.366.528.575 1.146.626 1.853h-2.211a2.115 2.115 0 0 0-.64-1.182c-.332-.32-.777-.48-1.336-.48-.473 0-.888.128-1.246.384-.358.251-.637.614-.838 1.087-.196.473-.294 1.04-.294 1.7 0 .669.099 1.244.294 1.726.197.477.471.846.825 1.106a2.11 2.11 0 0 0 1.26.383 2.1 2.1 0 0 0 .913-.192c.273-.132.501-.321.684-.569a2.17 2.17 0 0 0 .378-.9h2.211a3.856 3.856 0 0 1-.613 1.846 3.64 3.64 0 0 1-1.445 1.253c-.61.299-1.325.448-2.148.448Zm10.453 0c-.985 0-1.835-.205-2.55-.614a4.155 4.155 0 0 1-1.643-1.751c-.384-.759-.576-1.652-.576-2.679 0-1.01.192-1.896.576-2.659a4.35 4.35 0 0 1 1.623-1.79c.695-.43 1.51-.645 2.448-.645.605 0 1.176.098 1.713.294.542.192 1.019.49 1.432.895.418.405.746.92.985 1.547.238.622.358 1.363.358 2.224v.71H81.51v-1.56h5.83a2.49 2.49 0 0 0-.288-1.183 2.09 2.09 0 0 0-.786-.824c-.333-.2-.72-.3-1.164-.3-.473 0-.888.115-1.246.345a2.38 2.38 0 0 0-.837.895 2.559 2.559 0 0 0-.301 1.208v1.361c0 .571.104 1.061.313 1.47.21.405.501.716.876.934.375.213.814.32 1.317.32a2.8 2.8 0 0 0 .914-.141c.272-.098.509-.241.71-.429.2-.187.35-.42.453-.696l2.16.242a3.367 3.367 0 0 1-.78 1.496c-.378.422-.864.75-1.457.985-.592.23-1.27.345-2.032.345Zm14.083-7.415-2.11.23a1.697 1.697 0 0 0-.313-.6 1.557 1.557 0 0 0-.588-.455c-.247-.115-.55-.172-.907-.172-.482 0-.887.104-1.215.313-.324.209-.483.48-.48.812a.85.85 0 0 0 .314.697c.217.179.575.326 1.074.44l1.675.359c.929.2 1.619.517 2.07.952.457.435.687 1.003.691 1.707a2.67 2.67 0 0 1-.543 1.636c-.354.469-.846.835-1.477 1.1-.63.264-1.355.396-2.173.396-1.202 0-2.17-.252-2.902-.755-.733-.507-1.17-1.212-1.31-2.115l2.256-.218c.102.444.32.778.652 1.004.332.226.765.339 1.297.339.55 0 .991-.113 1.324-.339.336-.226.505-.505.505-.837a.872.872 0 0 0-.326-.697c-.213-.183-.546-.324-.998-.422l-1.674-.352c-.942-.196-1.639-.526-2.09-.99-.452-.47-.676-1.061-.672-1.777-.004-.605.16-1.13.492-1.573.337-.447.804-.792 1.4-1.035.601-.247 1.294-.371 2.078-.371 1.15 0 2.056.245 2.716.735.665.49 1.076 1.153 1.234 1.988Zm9.879 0-2.109.23a1.69 1.69 0 0 0-.314-.6 1.559 1.559 0 0 0-.588-.455c-.247-.115-.549-.172-.907-.172-.482 0-.887.104-1.215.313-.324.209-.484.48-.479.812-.005.285.1.518.313.697.217.179.575.326 1.074.44l1.675.359c.928.2 1.619.517 2.071.952.456.435.686 1.003.69 1.707a2.667 2.667 0 0 1-.543 1.636c-.354.469-.846.835-1.477 1.1-.631.264-1.355.396-2.173.396-1.202 0-2.169-.252-2.902-.755-.733-.507-1.17-1.212-1.311-2.115l2.257-.218c.102.444.319.778.652 1.004.332.226.765.339 1.297.339.55 0 .991-.113 1.323-.339.337-.226.505-.505.505-.837a.87.87 0 0 0-.326-.697c-.213-.183-.545-.324-.997-.422l-1.674-.352c-.942-.196-1.639-.526-2.091-.99-.451-.47-.675-1.061-.671-1.777-.004-.605.16-1.13.492-1.573.337-.447.804-.792 1.4-1.035.601-.247 1.294-.371 2.078-.371 1.15 0 2.056.245 2.716.735.665.49 1.076 1.153 1.234 1.988Zm6.465 7.415c-.984 0-1.834-.205-2.55-.614a4.157 4.157 0 0 1-1.643-1.751c-.383-.759-.575-1.652-.575-2.679 0-1.01.192-1.896.575-2.659a4.35 4.35 0 0 1 1.624-1.79c.694-.43 1.511-.645 2.448-.645.605 0 1.176.098 1.713.294.541.192 1.019.49 1.432.895.418.405.746.92.984 1.547.239.622.358 1.363.358 2.224v.71h-8.047v-1.56h5.829a2.492 2.492 0 0 0-.287-1.183 2.094 2.094 0 0 0-.787-.824c-.332-.2-.72-.3-1.163-.3-.473 0-.888.115-1.246.345a2.378 2.378 0 0 0-.838.895 2.57 2.57 0 0 0-.3 1.208v1.361c0 .571.104 1.061.313 1.47.209.405.501.716.876.934.375.213.814.32 1.316.32.337 0 .642-.048.915-.141a2.03 2.03 0 0 0 .709-.429c.2-.187.352-.42.454-.696l2.16.242a3.368 3.368 0 0 1-.779 1.496c-.38.422-.866.75-1.458.985-.592.23-1.27.345-2.033.345Zm14.084-7.415-2.11.23a1.687 1.687 0 0 0-.313-.6 1.559 1.559 0 0 0-.588-.455c-.247-.115-.55-.172-.908-.172-.481 0-.886.104-1.214.313-.324.209-.484.48-.479.812-.005.285.1.518.313.697.217.179.575.326 1.074.44l1.674.359c.929.2 1.62.517 2.071.952.456.435.686 1.003.691 1.707a2.675 2.675 0 0 1-.544 1.636c-.353.469-.845.835-1.476 1.1-.631.264-1.355.396-2.173.396-1.202 0-2.17-.252-2.902-.755-.733-.507-1.17-1.212-1.311-2.115l2.257-.218c.102.444.319.778.652 1.004.332.226.764.339 1.297.339.55 0 .991-.113 1.323-.339.337-.226.505-.505.505-.837a.87.87 0 0 0-.326-.697c-.213-.183-.545-.324-.997-.422l-1.675-.352c-.941-.196-1.638-.526-2.09-.99-.452-.47-.675-1.061-.671-1.777-.004-.605.16-1.13.492-1.573.337-.447.803-.792 1.4-1.035.601-.247 1.293-.371 2.077-.371 1.151 0 2.057.245 2.717.735.665.49 1.076 1.153 1.234 1.988Z"/></svg>
