<?xml version="1.0" standalone="no"?>
<!DOCTYPE svg PUBLIC "-//W3C//DTD SVG 20010904//EN"
 "http://www.w3.org/TR/2001/REC-SVG-20010904/DTD/svg10.dtd">
<svg version="1.0" xmlns="http://www.w3.org/2000/svg"
 width="608.000000pt" height="608.000000pt" viewBox="0 0 608.000000 608.000000"
 preserveAspectRatio="xMidYMid meet">

<g transform="translate(0.000000,608.000000) scale(0.100000,-0.100000)"
fill="#000000" stroke="none">
<path d="M3947 4065 c-9 -8 -42 -62 -74 -120 -32 -58 -64 -105 -70 -105 -7 0
-57 22 -111 50 -54 27 -138 63 -188 79 -114 38 -314 78 -429 86 l-90 6 135
-59 c336 -147 516 -259 691 -429 l87 -84 32 58 c18 32 91 158 162 280 70 122
131 228 134 237 5 14 -10 16 -129 16 -107 0 -139 -3 -150 -15z"/>
</g>
</svg>
